<?xml version="1.0" encoding="iso-8859-1"?>
<!-- Generator: Adobe Illustrator 19.0.0, SVG Export Plug-In . SVG Version: 6.00 Build 0)  -->
<svg xmlns="http://www.w3.org/2000/svg" xmlns:xlink="http://www.w3.org/1999/xlink" version="1.1" id="Layer_1" x="0px" y="0px" viewBox="0 0 511.999 511.999" style="enable-background:new 0 0 511.999 511.999;" xml:space="preserve" width="512px" height="512px">
<g>
	<g>
		<path d="M476.295,119.721H348.813V97.47c0-22.589-18.378-40.967-40.967-40.967H204.154c-22.589,0-40.967,18.377-40.967,40.967    v22.251H35.705C16.018,119.721,0,135.738,0,155.426v264.363c0,19.689,16.018,35.706,35.705,35.706h440.588    c19.689,0,35.705-16.018,35.705-35.706V155.426C512,135.738,495.982,119.721,476.295,119.721z M183.586,97.47    c0-11.341,9.227-20.569,20.569-20.569h103.692c11.341,0,20.569,9.227,20.569,20.569v22.251h-144.83V97.47z M476.295,435.097    H35.705c-8.44,0-15.307-6.866-15.307-15.308V155.426c0-8.44,6.867-15.307,15.307-15.307h440.588    c8.44,0,15.307,6.866,15.307,15.307v264.363h0.001C491.602,428.23,484.734,435.097,476.295,435.097z" fill="#FFFFFF"/>
	</g>
</g>
<g>
	<g>
		<path d="M435.506,202.556H76.494c-5.633,0-10.199,4.567-10.199,10.199c0,5.632,4.566,10.199,10.199,10.199h359.012    c5.633,0,10.199-4.567,10.199-10.199C445.705,207.123,441.139,202.556,435.506,202.556z" fill="#FFFFFF"/>
	</g>
</g>
<g>
	<g>
		<path d="M435.506,275.99H76.494c-5.633,0-10.199,4.567-10.199,10.199c0,5.632,4.566,10.199,10.199,10.199h359.012    c5.633,0,10.199-4.567,10.199-10.199C445.705,280.557,441.139,275.99,435.506,275.99z" fill="#FFFFFF"/>
	</g>
</g>
<g>
	<g>
		<path d="M435.506,349.424h-5.1c-5.633,0-10.199,4.567-10.199,10.199c0,5.632,4.566,10.199,10.199,10.199h5.1    c5.633,0,10.199-4.567,10.199-10.199C445.705,353.991,441.139,349.424,435.506,349.424z" fill="#FFFFFF"/>
	</g>
</g>
<g>
	<g>
		<path d="M390.63,349.424H76.494c-5.633,0-10.199,4.567-10.199,10.199c0,5.632,4.566,10.199,10.199,10.199H390.63    c5.633,0,10.199-4.567,10.199-10.199C400.829,353.991,396.263,349.424,390.63,349.424z" fill="#FFFFFF"/>
	</g>
</g>
<g>
</g>
<g>
</g>
<g>
</g>
<g>
</g>
<g>
</g>
<g>
</g>
<g>
</g>
<g>
</g>
<g>
</g>
<g>
</g>
<g>
</g>
<g>
</g>
<g>
</g>
<g>
</g>
<g>
</g>
</svg>
